<?xml version="1.0" encoding="UTF-8"?>
<svg version="1.1" xmlns="http://www.w3.org/2000/svg" width="427" height="143">
<path d="M0 0 C8.36843902 7.98038641 11.53217538 17.4260769 11.94711304 28.84289551 C12.07287563 35.1194056 12.02528266 41.39470987 11.98046875 47.671875 C11.97486514 49.98642704 11.97059866 52.30098266 11.96760559 54.61553955 C11.95621706 60.67193636 11.92680196 66.72811321 11.89349365 72.78442383 C11.86266295 78.97864813 11.84907259 85.17290839 11.83398438 91.3671875 C11.80192611 103.49488767 11.75080301 115.62242546 11.6875 127.75 C-2.33429038 127.8437258 -16.3560317 127.91385029 -30.37807178 127.95724869 C-36.88977266 127.97808256 -43.40126241 128.00632391 -49.9128418 128.05175781 C-56.20225271 128.09536466 -62.4914611 128.11916868 -68.78101158 128.12950897 C-71.17507805 128.13687368 -73.56913402 128.15125501 -75.96311378 128.17292023 C-79.32826928 128.20215068 -82.69259838 128.2059477 -86.05786133 128.20410156 C-87.03754379 128.21848267 -88.01722626 128.23286377 -89.02659607 128.24768066 C-99.40918058 128.18644236 -107.88452415 125.11324505 -115.37109375 117.89453125 C-122.83703595 109.64744419 -124.83540604 101.34859505 -124.61328125 90.3125 C-123.73850769 79.95154568 -119.13575071 72.50257254 -111.3125 65.75 C-105.63389442 62.13331856 -99.97806821 59.61498238 -93.18652344 59.63647461 C-92.38599548 59.63655014 -91.58546753 59.63662567 -90.76068115 59.63670349 C-89.47922211 59.64444542 -89.47922211 59.64444542 -88.171875 59.65234375 C-87.28969299 59.6537587 -86.40751099 59.65517365 -85.49859619 59.65663147 C-82.68652935 59.66221999 -79.8745427 59.67477039 -77.0625 59.6875 C-75.15364698 59.69251648 -73.24479272 59.69707913 -71.3359375 59.70117188 C-66.66142753 59.71218566 -61.98697735 59.72944242 -57.3125 59.75 C-57.32821045 58.65123535 -57.3439209 57.5524707 -57.36010742 56.42041016 C-57.41485199 52.30167111 -57.44901028 48.1829635 -57.47729492 44.06396484 C-57.49228093 42.28917004 -57.51267682 40.51441163 -57.53881836 38.73974609 C-57.7498185 24.03593234 -57.06484654 12.38187156 -46.71875 0.99609375 C-33.86775996 -11.09717282 -13.43126464 -11.01665526 0 0 Z " fill="#516FFD" transform="translate(125.3125,13.25)"/>
<path d="M0 0 C22.44 0 44.88 0 68 0 C68 22.44 68 44.88 68 68 C45.56 68 23.12 68 0 68 C0 45.56 0 23.12 0 0 Z " fill="#1F2C5E" transform="translate(69,73)"/>
<path d="M0 0 C6.0328125 -0.0928125 6.0328125 -0.0928125 12.1875 -0.1875 C14.07698364 -0.22846802 14.07698364 -0.22846802 16.00463867 -0.27026367 C17.50861206 -0.28150269 17.50861206 -0.28150269 19.04296875 -0.29296875 C20.06414795 -0.3086792 21.08532715 -0.32438965 22.13745117 -0.34057617 C26.463921 0.17417226 29.07058284 1.91567998 31.875 5.1875 C33.41921892 9.04804731 33.21146926 12.0467845 32 16 C29.9375 19 29.9375 19 28 21 C28.70576172 22.04220703 28.70576172 22.04220703 29.42578125 23.10546875 C31.14309781 26.26311534 31.68126465 28.76885255 32.1875 32.3125 C32.34605469 33.38113281 32.50460937 34.44976562 32.66796875 35.55078125 C32.77753906 36.35902344 32.88710938 37.16726562 33 38 C36.85550018 34.36364015 39.86741138 30.58308152 42.8125 26.1875 C43.21919922 25.59001953 43.62589844 24.99253906 44.04492188 24.37695312 C45.03479703 22.92125436 46.01809735 21.46108826 47 20 C43.31297498 13.11868603 39.23402371 6.55858575 35 0 C39.62 0 44.24 0 49 0 C54 8.75 54 8.75 54 11 C54.66 11 55.32 11 56 11 C56.2475 10.29875 56.495 9.5975 56.75 8.875 C57.36875 7.451875 57.36875 7.451875 58 6 C58.433125 4.906875 58.86625 3.81375 59.3125 2.6875 C62 0 62 0 65.15234375 -0.37890625 C68.45483701 -0.37532048 71.70810713 -0.25688181 75 0 C73.94009367 1.68913027 72.87692554 3.37621391 71.8125 5.0625 C71.17957031 6.06539063 70.54664063 7.06828125 69.89453125 8.1015625 C68.34507345 10.4720732 66.73267352 12.70210712 65 14.9375 C62.75327109 17.66804697 62.75327109 17.66804697 63.21850586 19.95043945 C64.07226966 22.18953572 65.11893268 23.90083143 66.50390625 25.85546875 C66.99697266 26.55994141 67.49003906 27.26441406 67.99804688 27.99023438 C68.51431641 28.71533203 69.03058594 29.44042969 69.5625 30.1875 C70.58657489 31.63795552 71.60881615 33.08970801 72.62890625 34.54296875 C73.08338135 35.18258545 73.53785645 35.82220215 74.00610352 36.48120117 C75 38 75 38 75 39 C70.49777023 39.67025676 66.46985097 39.97193271 62 39 C58.77609186 35.7396929 56.86001935 32.16644335 55 28 C54.79632813 28.7940625 54.59265625 29.588125 54.3828125 30.40625 C52.85464443 34.16497395 51.57698212 36.98709405 48 39 C39.49669337 40.53649927 30.56855208 39.65728084 22 39 C20.03333333 33.10833333 20.03333333 33.10833333 19.359375 30.91796875 C18.69585472 28.88389098 18.69585472 28.88389098 17 26 C15.02 25.67 13.04 25.34 11 25 C11 29.62 11 34.24 11 39 C7.37 39 3.74 39 0 39 C0 26.13 0 13.26 0 0 Z M11 8 C11 10.64 11 13.28 11 16 C12.27875 16.020625 13.5575 16.04125 14.875 16.0625 C15.59429687 16.07410156 16.31359375 16.08570313 17.0546875 16.09765625 C19.08185404 16.12649242 19.08185404 16.12649242 21 15 C21 13.35 21 11.7 21 10 C17.38026598 8.68373308 14.90432869 8 11 8 Z " fill="#202B58" transform="translate(348,89)"/>
<path d="M0 0 C3.795 -0.103125 7.59 -0.20625 11.5 -0.3125 C12.68013672 -0.35802002 13.86027344 -0.40354004 15.07617188 -0.45043945 C22.0553989 -0.54174433 26.67899951 0.33873252 32 5 C36.26727969 9.34549867 36.56310985 15.14717857 37 21 C36.63391907 26.71278932 34.13222214 32.03828217 30 36 C24.30401028 40.00760189 18.28998274 39.33940461 11.625 39.1875 C7.78875 39.125625 3.9525 39.06375 0 39 C0 26.13 0 13.26 0 0 Z M11 8 C11 15.59 11 23.18 11 31 C19.31026309 30.84802209 19.31026309 30.84802209 22.5 28.125 C25.38033484 24.04452564 25.49112809 19.8357227 25 15 C24.18792354 12.03506935 24.18792354 12.03506935 22 10 C18.3595799 8.55141617 14.90568062 8 11 8 Z " fill="#1F2B57" transform="translate(306,89)"/>
<path d="M0 0 C3.63 0 7.26 0 11 0 C11 5.28 11 10.56 11 16 C15.95 16 20.9 16 26 16 C26 10.72 26 5.44 26 0 C29.63 0 33.26 0 37 0 C37 12.87 37 25.74 37 39 C33.37 39 29.74 39 26 39 C26 34.05 26 29.1 26 24 C21.05 24 16.1 24 11 24 C11 28.95 11 33.9 11 39 C7.37 39 3.74 39 0 39 C0 26.13 0 13.26 0 0 Z " fill="#202B58" transform="translate(226,89)"/>
<path d="M0 0 C3.14133752 2.29853965 4.76840788 4.42482284 6.5625 7.875 C6.5625 9.525 6.5625 11.175 6.5625 12.875 C2.9325 12.875 -0.6975 12.875 -4.4375 12.875 C-5.0975 11.555 -5.7575 10.235 -6.4375 8.875 C-9.49658413 8.05915432 -9.49658413 8.05915432 -12.4375 7.875 C-11.86200454 10.36247896 -11.86200454 10.36247896 -10.4375 12.875 C-7.76372183 14.16575508 -7.76372183 14.16575508 -4.625 14.875 C0.53916325 16.3982424 3.30363399 17.60476178 6.5625 21.875 C8.17872481 25.10744962 8.14704308 28.38073136 7.5625 31.875 C5.48902813 35.67360047 2.60942879 38.34164809 -1.4375 39.875 C-4.6796875 40.17578125 -4.6796875 40.17578125 -8.3125 40.1875 C-9.50617188 40.20425781 -10.69984375 40.22101563 -11.9296875 40.23828125 C-15.78487885 39.83902424 -18.15109955 38.89813091 -21.4375 36.875 C-24.43634341 33.1659042 -25.4375 31.7045217 -25.4375 26.875 C-15.17126243 26.23778525 -15.17126243 26.23778525 -12.0625 28.9375 C-11.258125 29.8965625 -11.258125 29.8965625 -10.4375 30.875 C-7.73044488 30.73474801 -7.73044488 30.73474801 -5.4375 29.875 C-5.48867376 27.90677511 -5.48867376 27.90677511 -6.4375 25.875 C-9.04573109 24.6860219 -9.04573109 24.6860219 -12.1875 23.9375 C-20.5527512 21.35133435 -20.5527512 21.35133435 -23.4375 16.875 C-24.88000516 12.18251333 -24.95173606 8.98574989 -22.875 4.5 C-16.64251878 -2.21190286 -8.45446407 -2.76691552 0 0 Z " fill="#202B57" transform="translate(172.4375,89.125)"/>
<path d="M0 0 C4.29 0 8.58 0 13 0 C13 4.29 13 8.58 13 13 C17.62 13 22.24 13 27 13 C27 17.62 27 22.24 27 27 C22.38 27 17.76 27 13 27 C13 31.29 13 35.58 13 40 C8.38 40 3.76 40 -1 40 C-1 35.71 -1 31.42 -1 27 C-5.29 27 -9.58 27 -14 27 C-14 22.38 -14 17.76 -14 13 C-9.38 13 -4.76 13 0 13 C0 8.71 0 4.42 0 0 Z " fill="#516EF7" transform="translate(96,87)"/>
<path d="M0 0 C9.9 0 19.8 0 30 0 C30 2.64 30 5.28 30 8 C23.73 8 17.46 8 11 8 C11 10.31 11 12.62 11 15 C16.94 15 22.88 15 29 15 C29 17.97 29 20.94 29 24 C23.06 24 17.12 24 11 24 C11 26.31 11 28.62 11 31 C17.27 31 23.54 31 30 31 C30 33.64 30 36.28 30 39 C20.1 39 10.2 39 0 39 C0 26.13 0 13.26 0 0 Z " fill="#1F2B58" transform="translate(270,89)"/>
<path d="M0 0 C4.1545696 2.41484358 6.09236502 5.99001161 7.5 10.5 C7.5 11.49 7.5 12.48 7.5 13.5 C3.7931141 13.7832086 0.1961474 13.96201842 -3.5 13.5 C-5.3125 11.0625 -5.3125 11.0625 -6.5 8.5 C-9.34627591 7.16449153 -9.34627591 7.16449153 -12.5 7.5 C-15.66040655 8.98630052 -15.66040655 8.98630052 -17.5 12.5 C-18.44983231 18.49007151 -18.64702947 23.62304268 -15.4375 28.875 C-11.666895 30.9608666 -9.60336403 30.54595554 -5.5 29.5 C-5.17 27.85 -4.84 26.2 -4.5 24.5 C-0.54 24.5 3.42 24.5 7.5 24.5 C6.54199441 30.67381378 5.15575277 33.48561282 0.25390625 37.37109375 C-4.95254955 40.72224236 -11.57607415 40.11620033 -17.5 39.5 C-23.20398805 37.42582253 -26.65469318 33.84917683 -29.5 28.5 C-31.55544793 21.83703792 -31.23383069 14.64067767 -28.4765625 8.25 C-22.75069377 -2.01075677 -10.37819216 -4.37283377 0 0 Z " fill="#202A56" transform="translate(213.5,89.5)"/>
<path d="M0 0 C1.125 3.75 1.125 3.75 0 6 C-0.1468475 8.32798697 -0.22758182 10.66019109 -0.28125 12.9921875 C-0.29934219 13.73756775 -0.31743439 14.482948 -0.33607483 15.25091553 C-0.39587155 17.79218775 -0.44810931 20.33355479 -0.5 22.875 C-0.54017571 24.68148026 -0.58046231 26.48795805 -0.62084961 28.29443359 C-1.25245025 57.52600463 -1.59939804 86.76458016 -2 116 C-15.53 116 -29.06 116 -43 116 C-43 115.67 -43 115.34 -43 115 C-29.8 115 -16.6 115 -3 115 C-3.33 93.55 -3.66 72.1 -4 50 C-10.084375 49.938125 -16.16875 49.87625 -22.4375 49.8125 C-25.29039673 49.77153198 -25.29039673 49.77153198 -28.20092773 49.72973633 C-29.73680998 49.72096076 -31.2726993 49.71331937 -32.80859375 49.70703125 C-33.58303833 49.69168335 -34.35748291 49.67633545 -35.15539551 49.66052246 C-40.73216469 49.6578981 -45.97724738 50.43827002 -51 53 C-51.66 53.99 -52.32 54.98 -53 56 C-53.99 56 -54.98 56 -56 56 C-55.34 56.33 -54.68 56.66 -54 57 C-54.33 57.99 -54.66 58.98 -55 60 C-56.32 59.67 -57.64 59.34 -59 59 C-61.91227269 62.28804981 -63.49701212 64.59885603 -64 69 C-64.99 68.67 -65.98 68.34 -67 68 C-65.18549509 61.54842699 -60.21598861 56.78242562 -55.125 52.6875 C-47.97300016 48.82542009 -41.44240046 47.55618633 -33.37109375 47.70703125 C-32.05843285 47.71339851 -32.05843285 47.71339851 -30.71925354 47.71989441 C-27.95833928 47.73652019 -25.19818895 47.77414034 -22.4375 47.8125 C-20.55144293 47.82756772 -18.66537427 47.84125244 -16.77929688 47.85351562 C-12.18590917 47.88637063 -7.59308353 47.93803865 -3 48 C-3.01571045 46.90123535 -3.0314209 45.8024707 -3.04760742 44.67041016 C-3.10235199 40.55167111 -3.13651028 36.4329635 -3.16479492 32.31396484 C-3.17978093 30.53917004 -3.20017682 28.76441163 -3.22631836 26.98974609 C-3.49791465 8.0632125 -3.49791465 8.0632125 0 0 Z " fill="#5770DF" transform="translate(71,25)"/>
<path d="M0 0 C1.13757065 1.07012575 2.2675477 2.14873458 3.375 3.25 C3.045 3.91 2.715 4.57 2.375 5.25 C1.67375 4.610625 0.9725 3.97125 0.25 3.3125 C-3.70971606 0.47183413 -6.71227216 -0.04106728 -11.5 0.6875 C-12.551875 0.9659375 -12.551875 0.9659375 -13.625 1.25 C-14.25 -0.5625 -14.25 -0.5625 -14.625 -2.75 C-13.965 -3.74 -13.305 -4.73 -12.625 -5.75 C-20.94314959 -6.97412485 -28.76456148 -7.15742014 -36.625 -3.75 C-38.46262278 -1.75610702 -38.46262278 -1.75610702 -39.625 0.25 C-39.625 -0.41 -39.625 -1.07 -39.625 -1.75 C-43.4623228 0.74872182 -47.08460866 3.3343836 -50.625 6.25 C-47.79312444 -0.06726087 -42.85002545 -3.45455204 -36.5625 -6.0625 C-23.7663058 -10.67374115 -10.44221573 -9.06582526 0 0 Z " fill="#516EFA" transform="translate(125.625,13.75)"/>
<path d="M0 0 C0.33 0 0.66 0 1 0 C1 2.31 1 4.62 1 7 C7.27 7 13.54 7 20 7 C20 9.64 20 12.28 20 15 C18.68 15 17.36 15 16 15 C16.33 12.69 16.66 10.38 17 8 C11.61221755 8.60615229 11.61221755 8.60615229 6.3125 9.6875 C3.36574528 10.0857101 1.63760884 9.28112429 -1 8 C-1.125 2.25 -1.125 2.25 0 0 Z " fill="#212A4D" transform="translate(280,113)"/>
<path d="M0 0 C4.62 0 9.24 0 14 0 C14 4.62 14 9.24 14 14 C9.71 14 5.42 14 1 14 C1 13.34 1 12.68 1 12 C4.63 12 8.26 12 12 12 C12 8.37 12 4.74 12 1 C6.06 1.495 6.06 1.495 0 2 C0 1.34 0 0.68 0 0 Z " fill="#5067D5" transform="translate(109,100)"/>
<path d="M0 0 C-0.79921875 -0.10699219 -1.5984375 -0.21398437 -2.421875 -0.32421875 C-10.28288537 -1.18228678 -17.63273033 -1.23925984 -25 2 C-26.83327483 3.99513688 -26.83327483 3.99513688 -28 6 C-28 5.34 -28 4.68 -28 4 C-31.8373228 6.49872182 -35.45960866 9.0843836 -39 12 C-36.16812444 5.68273913 -31.22502545 2.29544796 -24.9375 -0.3125 C-17.06371041 -3.14990165 -7.35996789 -4.90664526 0 0 Z " fill="#5169E1" transform="translate(114,8)"/>
<path d="M0 0 C0.66 0.33 1.32 0.66 2 1 C1.67 1.99 1.34 2.98 1 4 C0.01 4 -0.98 4 -2 4 C-1.34 4.33 -0.68 4.66 0 5 C-0.33 5.99 -0.66 6.98 -1 8 C-2.32 7.67 -3.64 7.34 -5 7 C-7.91227269 10.28804981 -9.49701212 12.59885603 -10 17 C-10.99 16.67 -11.98 16.34 -13 16 C-11.09744619 9.23536425 -5.59452852 3.96792551 0 0 Z " fill="#4F66EB" transform="translate(17,77)"/>
<path d="M0 0 C7.1875 0.47916667 7.1875 0.47916667 10.4375 2.5625 C12.72463192 6.1304258 12.86526257 8.7557711 13 13 C12.01 14.485 12.01 14.485 11 16 C11 15.34 11 14.68 11 14 C10.34 13.67 9.68 13.34 9 13 C9.99 12.67 10.98 12.34 12 12 C11.67 11.01 11.34 10.02 11 9 C10.01 8.67 9.02 8.34 8 8 C7.67 6.35 7.34 4.7 7 3 C4.69 2.34 2.38 1.68 0 1 C0 0.67 0 0.34 0 0 Z " fill="#242C4D" transform="translate(368,89)"/>
<path d="M0 0 C4.29 0 8.58 0 13 0 C13 0.66 13 1.32 13 2 C9.37 2 5.74 2 2 2 C1.67 5.63 1.34 9.26 1 13 C0.67 13 0.34 13 0 13 C0 8.71 0 4.42 0 0 Z " fill="#1F327A" transform="translate(109,114)"/>
<path d="M0 0 C0.66 0 1.32 0 2 0 C2 0.66 2 1.32 2 2 C3.32 1.67 4.64 1.34 6 1 C7 5.75 7 5.75 7 8 C8.29352333 9.69774938 9.62517293 11.36739286 11 13 C7.38502261 11.52841629 5.59408489 9.58537669 3.25 6.5 C2.63640625 5.7059375 2.0228125 4.911875 1.390625 4.09375 C0 2 0 2 0 0 Z " fill="#526DE8" transform="translate(4,121)"/>
<path d="M0 0 C0.33 1.32 0.66 2.64 1 4 C2.36125 3.505 2.36125 3.505 3.75 3 C7 2 7 2 11 2 C11 3.32 11 4.64 11 6 C7.37 6 3.74 6 0 6 C-0.66 4.35 -1.32 2.7 -2 1 C-1.34 0.67 -0.68 0.34 0 0 Z " fill="#222A4B" transform="translate(168,96)"/>
<path d="M0 0 C4.29 0 8.58 0 13 0 C10.03 4.455 10.03 4.455 7 9 C6.67 8.01 6.34 7.02 6 6 C7.4375 3.3125 7.4375 3.3125 9 1 C5.7 1.33 2.4 1.66 -1 2 C-0.67 1.34 -0.34 0.68 0 0 Z " fill="#262D4E" transform="translate(410,89)"/>
<path d="M0 0 C2.28783297 0.91513319 3.73449728 1.65484646 5.25 3.625 C6.35060545 7.11025061 6.63673331 10.38690868 6 14 C4 16.5 4 16.5 2 18 C2.33 16.35 2.66 14.7 3 13 C3.66 13 4.32 13 5 13 C3.87687985 6.7425619 3.87687985 6.7425619 0 2 C0 1.34 0 0.68 0 0 Z " fill="#222E4A" transform="translate(174,107)"/>
<path d="M0 0 C6.04433574 1.35997554 9.63494136 4.85651794 14 9 C13.67 9.66 13.34 10.32 13 11 C10.44292735 8.95434188 7.89077241 6.90897701 5.375 4.8125 C3.05340567 2.83771567 3.05340567 2.83771567 0 2 C0 1.34 0 0.68 0 0 Z " fill="#536BDD" transform="translate(115,8)"/>
<path d="M0 0 C1.70884005 1.62339805 3.37446717 3.29319053 5 5 C5 5.66 5 6.32 5 7 C0.125 5.25 0.125 5.25 -1 3 C-0.67 2.01 -0.34 1.02 0 0 Z " fill="#1F2646" transform="translate(415,117)"/>
</svg>
